{
    "asset" : {
        "generator" : "Khronos glTF Blender I/O v1.8.19",
        "version" : "2.0"
    },
    "scene" : 0,
    "scenes" : [
        {
            "name" : "Scene",
            "nodes" : [
                0
            ]
        }
    ],
    "nodes" : [
        {
            "mesh" : 0,
            "name" : "Sphere.001",
            "scale" : [
                1,
                0.6076784729957581,
                1
            ]
        }
    ],
    "materials" : [
        {
            "doubleSided" : true,
            "name" : "red",
            "pbrMetallicRoughness" : {
                "baseColorFactor" : [
                    1,
                    0.003541576908901334,
                    0,
                    1
                ],
                "metallicFactor" : 0
            }
        }
    ],
    "meshes" : [
        {
            "name" : "Sphere.001",
            "primitives" : [
                {
                    "attributes" : {
                        "POSITION" : 0,
                        "NORMAL" : 1,
                        "TEXCOORD_0" : 2
                    },
                    "indices" : 3,
                    "material" : 0
                }
            ]
        }
    ],
    "accessors" : [
        {
            "bufferView" : 0,
            "componentType" : 5126,
            "count" : 1663,
            "max" : [
                0.9884620308876038,
                0.9064940214157104,
                0.9884617328643799
            ],
            "min" : [
                -0.988461434841156,
                -0.516829252243042,
                -0.9884616136550903
            ],
            "type" : "VEC3"
        },
        {
            "bufferView" : 1,
            "componentType" : 5126,
            "count" : 1663,
            "type" : "VEC3"
        },
        {
            "bufferView" : 2,
            "componentType" : 5126,
            "count" : 1663,
            "type" : "VEC2"
        },
        {
            "bufferView" : 3,
            "componentType" : 5123,
            "count" : 8076,
            "type" : "SCALAR"
        }
    ],
    "bufferViews" : [
        {
            "buffer" : 0,
            "byteLength" : 19956,
            "byteOffset" : 0
        },
        {
            "buffer" : 0,
            "byteLength" : 19956,
            "byteOffset" : 19956
        },
        {
            "buffer" : 0,
            "byteLength" : 13304,
            "byteOffset" : 39912
        },
        {
            "buffer" : 0,
            "byteLength" : 16152,
            "byteOffset" : 53216
        }
    ],
    "buffers" : [
        {
            "byteLength" : 69368,
            "uri" : "data:application/octet-stream;base64,"
        }
    ]
}
