{
    "asset" : {
        "generator" : "Khronos glTF Blender I/O v1.8.19",
        "version" : "2.0"
    },
    "scene" : 0,
    "scenes" : [
        {
            "name" : "Scene",
            "nodes" : [
                0
            ]
        }
    ],
    "nodes" : [
        {
            "mesh" : 0,
            "name" : "Sphere.001",
            "scale" : [
                1,
                0.6076784729957581,
                1
            ]
        }
    ],
    "materials" : [
        {
            "doubleSided" : true,
            "name" : "red",
            "pbrMetallicRoughness" : {
                "baseColorFactor" : [
                    1,
                    0.003541576908901334,
                    0,
                    1
                ],
                "metallicFactor" : 0
            }
        }
    ],
    "meshes" : [
        {
            "name" : "Sphere.001",
            "primitives" : [
                {
                    "attributes" : {
                        "POSITION" : 0,
                        "NORMAL" : 1,
                        "TANGENT" : 2,
                        "TEXCOORD_0" : 3
                    },
                    "indices" : 4,
                    "material" : 0
                }
            ]
        }
    ],
    "accessors" : [
        {
            "bufferView" : 0,
            "componentType" : 5126,
            "count" : 1341,
            "max" : [
                0.9884620308876038,
                1.0968658924102783,
                0.9884617328643799
            ],
            "min" : [
                -1.10556960105896,
                -1.4053730964660645,
                -0.9884616136550903
            ],
            "type" : "VEC3"
        },
        {
            "bufferView" : 1,
            "componentType" : 5126,
            "count" : 1341,
            "type" : "VEC3"
        },
        {
            "bufferView" : 2,
            "componentType" : 5126,
            "count" : 1341,
            "type" : "VEC4"
        },
        {
            "bufferView" : 3,
            "componentType" : 5126,
            "count" : 1341,
            "type" : "VEC2"
        },
        {
            "bufferView" : 4,
            "componentType" : 5123,
            "count" : 6192,
            "type" : "SCALAR"
        }
    ],
    "bufferViews" : [
        {
            "buffer" : 0,
            "byteLength" : 16092,
            "byteOffset" : 0
        },
        {
            "buffer" : 0,
            "byteLength" : 16092,
            "byteOffset" : 16092
        },
        {
            "buffer" : 0,
            "byteLength" : 21456,
            "byteOffset" : 32184
        },
        {
            "buffer" : 0,
            "byteLength" : 10728,
            "byteOffset" : 53640
        },
        {
            "buffer" : 0,
            "byteLength" : 12384,
            "byteOffset" : 64368
        }
    ],
    "buffers" : [
        {
            "byteLength" : 76752,
            "uri" : "data:application/octet-stream;base64,"
        }
    ]
}
