{
    "asset" : {
        "generator" : "Khronos glTF Blender I/O v1.8.19",
        "version" : "2.0"
    },
    "scene" : 0,
    "scenes" : [
        {
            "name" : "Scene",
            "nodes" : [
                0,
                1
            ]
        }
    ],
    "nodes" : [
        {
            "mesh" : 0,
            "name" : "Suzanne"
        },
        {
            "mesh" : 1,
            "name" : "Suzanne.001",
            "translation" : [
                0,
                0,
                -0.014228342100977898
            ]
        }
    ],
    "meshes" : [
        {
            "name" : "Suzanne",
            "primitives" : [
                {
                    "attributes" : {
                        "POSITION" : 0,
                        "NORMAL" : 1,
                        "TANGENT" : 2,
                        "TEXCOORD_0" : 3
                    },
                    "indices" : 4
                }
            ]
        },
        {
            "name" : "Suzanne.001", 
            "primitives" : [
                {
                    "attributes" : {
                        "POSITION" : 5,
                        "NORMAL" : 6,
                        "TANGENT" : 7,
                        "TEXCOORD_0" : 8
                    },
                    "indices" : 9
                }
            ]
        }
    ],
    "accessors" : [
        {
            "bufferView" : 0,
            "componentType" : 5126,
            "count" : 2924,
            "max" : [
                1.325934886932373,
                0.9392362236976624,
                0.8208942413330078
            ],
            "min" : [
                -1.325934886932373,
                -0.9704862236976624,
                -0.7782661318778992
            ],
            "type" : "VEC3"
        },
        {
            "bufferView" : 1,
            "componentType" : 5126,
            "count" : 2924,
            "type" : "VEC3"
        },
        {
            "bufferView" : 2,
            "componentType" : 5126,
            "count" : 2924,
            "type" : "VEC4"
        },
        {
            "bufferView" : 3,
            "componentType" : 5126,
            "count" : 2924,
            "type" : "VEC2"
        },
        {
            "bufferView" : 4,
            "componentType" : 5123,
            "count" : 10368,
            "type" : "SCALAR"
        },
        {
            "bufferView" : 5,
            "componentType" : 5126,
            "count" : 448,
            "max" : [
                0.5989583730697632,
                0.48958340287208557,
                0.8223199844360352
            ],
            "min" : [
                -0.5989583730697632,
                0.002604166977107525,
                0.567708432674408
            ],
            "type" : "VEC3"
        },
        {
            "bufferView" : 6,
            "componentType" : 5126,
            "count" : 448,
            "type" : "VEC3"
        },
        {
            "bufferView" : 7,
            "componentType" : 5126,
            "count" : 448,
            "type" : "VEC4"
        },
        {
            "bufferView" : 8,
            "componentType" : 5126,
            "count" : 448,
            "type" : "VEC2"
        },
        {
            "bufferView" : 9,
            "componentType" : 5123,
            "count" : 1440,
            "type" : "SCALAR"
        }
    ],
    "bufferViews" : [
        {
            "buffer" : 0,
            "byteLength" : 35088,
            "byteOffset" : 0
        },
        {
            "buffer" : 0,
            "byteLength" : 35088,
            "byteOffset" : 35088
        },
        {
            "buffer" : 0,
            "byteLength" : 46784,
            "byteOffset" : 70176
        },
        {
            "buffer" : 0,
            "byteLength" : 23392,
            "byteOffset" : 116960
        },
        {
            "buffer" : 0,
            "byteLength" : 20736,
            "byteOffset" : 140352
        },
        {
            "buffer" : 0,
            "byteLength" : 5376,
            "byteOffset" : 161088
        },
        {
            "buffer" : 0,
            "byteLength" : 5376,
            "byteOffset" : 166464
        },
        {
            "buffer" : 0,
            "byteLength" : 7168,
            "byteOffset" : 171840
        },
        {
            "buffer" : 0,
            "byteLength" : 3584,
            "byteOffset" : 179008
        },
        {
            "buffer" : 0,
            "byteLength" : 2880,
            "byteOffset" : 182592
        }
    ],
    "buffers" : [
        {
            "byteLength" : 185472,
            "uri" : "suzane.bin"
        }
    ]
}
